<svg width="31" height="31" viewBox="0 0 31 31" fill="none" xmlns="http://www.w3.org/2000/svg">
<path fill-rule="evenodd" clip-rule="evenodd" d="M14.1623 2.87563C14.6521 2.38586 15.4462 2.38586 15.9359 2.87563L18.8115 5.75121V5.01656C18.8115 4.32392 19.373 3.76243 20.0656 3.76243H23.828C24.5207 3.76243 25.0822 4.32392 25.0822 5.01656V12.0219L27.2231 14.1628C27.7129 14.6526 27.7129 15.4466 27.2231 15.9364C26.7333 16.4262 25.9393 16.4262 25.4495 15.9364L25.0822 15.5691V23.8285C25.0822 25.9064 23.3977 27.5909 21.3198 27.5909H8.77846C6.70055 27.5909 5.01607 25.9064 5.01607 23.8285V15.5691L4.64875 15.9364C4.15898 16.4262 3.36491 16.4262 2.87514 15.9364C2.38537 15.4466 2.38537 14.6526 2.87514 14.1628L5.38295 11.655C5.38325 11.6547 5.38355 11.6544 5.38385 11.6541L14.1623 2.87563ZM7.52433 13.0608V23.8285C7.52433 24.5212 8.08583 25.0826 8.77846 25.0826H21.3198C22.0124 25.0826 22.5739 24.5212 22.5739 23.8285V13.0608L19.179 9.66592C19.1789 9.66581 19.1788 9.6657 19.1787 9.66559L15.0491 5.53604L7.52433 13.0608ZM21.3198 8.25947L22.5739 9.5136V6.27069H21.3198V8.25947Z" fill="#8ECAE6"/>
</svg>
