<svg width="34" height="33" viewBox="0 0 34 33" fill="none" xmlns="http://www.w3.org/2000/svg">
<path fill-rule="evenodd" clip-rule="evenodd" d="M16.9993 2.75C17.7818 2.75 18.416 3.36561 18.416 4.125V5.61407C22.4361 6.26868 25.4993 9.66213 25.4993 13.75V19.3188C27.1159 19.6373 28.3327 21.0245 28.3327 22.6875C28.3327 24.586 26.747 26.125 24.791 26.125H21.2493C21.2493 28.4032 19.3466 30.25 16.9993 30.25C14.6521 30.25 12.7493 28.4032 12.7493 26.125H9.20768C7.25167 26.125 5.66602 24.586 5.66602 22.6875C5.66602 21.0245 6.88276 19.6373 8.49935 19.3188V13.75C8.49935 9.66213 11.5626 6.26868 15.5827 5.61407V4.125C15.5827 3.36561 16.2169 2.75 16.9993 2.75ZM15.5827 26.125C15.5827 26.8844 16.2169 27.5 16.9993 27.5C17.7818 27.5 18.416 26.8844 18.416 26.125H15.5827ZM9.20768 23.375C8.81648 23.375 8.49935 23.0672 8.49935 22.6875C8.49935 22.3078 8.81648 22 9.20768 22H9.91602C10.6984 22 11.3327 21.3844 11.3327 20.625V13.75C11.3327 10.7124 13.8697 8.25 16.9993 8.25C20.129 8.25 22.666 10.7124 22.666 13.75V20.625C22.666 21.3844 23.3003 22 24.0827 22H24.791C25.1822 22 25.4993 22.3078 25.4993 22.6875C25.4993 23.0672 25.1822 23.375 24.791 23.375H9.20768Z" fill="black"/>
</svg>
