<svg width="40" height="38" viewBox="0 0 40 38" fill="none" xmlns="http://www.w3.org/2000/svg">
<path fill-rule="evenodd" clip-rule="evenodd" d="M6.66667 7.91675C6.66667 5.2934 8.90524 3.16675 11.6667 3.16675H28.3333C31.0948 3.16675 33.3333 5.2934 33.3333 7.91675V30.0834C33.3333 32.7068 31.0948 34.8334 28.3333 34.8334H11.6667C8.90524 34.8334 6.66667 32.7068 6.66667 30.0834C6.66667 29.209 7.41286 28.5001 8.33333 28.5001C9.25381 28.5001 10 29.209 10 30.0834C10 30.9579 10.7462 31.6667 11.6667 31.6667H28.3333C29.2538 31.6667 30 30.9579 30 30.0834V7.91675C30 7.0423 29.2538 6.33341 28.3333 6.33341H11.6667C10.7462 6.33341 10 7.0423 10 7.91675C10 8.7912 9.25381 9.50008 8.33333 9.50008C7.41286 9.50008 6.66667 8.7912 6.66667 7.91675ZM14.5118 11.5472C15.1627 12.1655 15.1627 13.168 14.5118 13.7863L10.6904 17.4167L25 17.4167C25.9205 17.4167 26.6667 18.1256 26.6667 19.0001C26.6667 19.8745 25.9205 20.5834 25 20.5834L10.6904 20.5834L14.5118 24.2138C15.1627 24.8322 15.1627 25.8347 14.5118 26.453C13.861 27.0713 12.8057 27.0713 12.1548 26.453L5.48816 20.1197C4.83728 19.5013 4.83728 18.4988 5.48816 17.8805L12.1548 11.5472C12.8057 10.9288 13.861 10.9288 14.5118 11.5472Z" fill="#8ECAE6"/>
</svg>
