<svg width="26" height="34" viewBox="0 0 26 34" fill="none" xmlns="http://www.w3.org/2000/svg">
<path d="M0 33.25C0 29.8906 1.33452 26.6688 3.70998 24.2933C6.08544 21.9179 9.30726 20.5833 12.6667 20.5833C16.0261 20.5833 19.2479 21.9179 21.6234 24.2933C23.9988 26.6688 25.3333 29.8906 25.3333 33.25H22.1667C22.1667 30.7304 21.1658 28.3141 19.3842 26.5325C17.6026 24.7509 15.1862 23.75 12.6667 23.75C10.1471 23.75 7.73075 24.7509 5.94915 26.5325C4.16756 28.3141 3.16667 30.7304 3.16667 33.25H0ZM12.6667 19C7.41792 19 3.16667 14.7488 3.16667 9.5C3.16667 4.25125 7.41792 0 12.6667 0C17.9154 0 22.1667 4.25125 22.1667 9.5C22.1667 14.7488 17.9154 19 12.6667 19ZM12.6667 15.8333C16.1658 15.8333 19 12.9992 19 9.5C19 6.00083 16.1658 3.16667 12.6667 3.16667C9.1675 3.16667 6.33333 6.00083 6.33333 9.5C6.33333 12.9992 9.1675 15.8333 12.6667 15.8333Z" fill="#8ECAE6"/>
</svg>
