<svg width="323" height="24" viewBox="0 0 323 24" fill="none" xmlns="http://www.w3.org/2000/svg">
<g clip-path="url(#clip0_138_532)">
<path d="M0 11.6649C0 9.54967 0.521049 7.59776 1.5631 5.80913C2.60517 4.0205 4.02052 2.60517 5.80913 1.5631C7.59776 0.521025 9.5497 0 11.6649 0C13.7802 0 15.7321 0.521025 17.5207 1.5631C19.3093 2.60517 20.7247 4.0205 21.7667 5.80913C22.8088 7.59776 23.3298 9.54967 23.3298 11.6649C23.3298 13.7802 22.8088 15.7321 21.7667 17.5207C20.7247 19.3093 19.3093 20.7247 17.5207 21.7667C15.7321 22.8088 13.7802 23.3298 11.6649 23.3298C9.5497 23.3298 7.59776 22.8088 5.80913 21.7667C4.02052 20.7247 2.60517 19.3093 1.5631 17.5207C0.521049 15.7321 0 13.7802 0 11.6649ZM1.93638 11.6649C1.93638 14.0912 2.75292 16.2298 4.38601 18.0806C5.13256 16.6186 6.31462 15.2266 7.93215 13.9046C9.5497 12.5826 11.1283 11.7505 12.6681 11.4083C12.4348 10.8639 12.2093 10.374 11.9915 9.93851C9.3164 10.7939 6.4235 11.2217 3.31284 11.2217C2.70626 11.2217 2.25523 11.2139 1.95971 11.1983C1.95971 11.2605 1.95583 11.3383 1.94804 11.4316C1.94027 11.5249 1.93638 11.6027 1.93638 11.6649ZM2.23966 9.26195C2.58184 9.29305 3.08733 9.30861 3.7561 9.30861C6.35351 9.30861 8.81868 8.95866 11.1517 8.25876C9.96963 6.15908 8.67093 4.40934 7.25558 3.00955C6.02689 3.63169 4.97315 4.49489 4.09439 5.59916C3.21565 6.70343 2.5974 7.92438 2.23966 9.26195ZM5.71581 19.3404C7.47334 20.7091 9.45638 21.3935 11.6649 21.3935C12.8159 21.3935 13.959 21.1757 15.0944 20.7402C14.7833 18.0806 14.1768 15.5066 13.2747 13.0181C11.8438 13.3291 10.4012 14.1146 8.94699 15.3744C7.49277 16.6342 6.41571 17.9562 5.71581 19.3404ZM9.28528 2.26299C10.654 3.67835 11.9215 5.44362 13.088 7.55887C15.2033 6.67233 16.7975 5.54473 17.8707 4.17604C16.0665 2.68293 13.9979 1.93638 11.6649 1.93638C10.8717 1.93638 10.0785 2.04526 9.28528 2.26299ZM13.9279 9.21529C14.1612 9.71298 14.4256 10.3429 14.7211 11.105C15.8721 10.9961 17.1241 10.9417 18.4772 10.9417C19.4415 10.9417 20.3981 10.965 21.3468 11.0117C21.2224 8.89644 20.4603 7.01451 19.0605 5.36586C18.0495 6.87453 16.3387 8.15767 13.9279 9.21529ZM15.3044 12.7381C16.0976 15.04 16.6342 17.4041 16.9141 19.8304C18.1428 19.0371 19.146 18.0184 19.9237 16.7742C20.7014 15.5299 21.168 14.1845 21.3235 12.7381C20.1881 12.6603 19.1538 12.6214 18.2206 12.6214C17.3652 12.6214 16.3931 12.6603 15.3044 12.7381Z" fill="white"/>
</g>
<g clip-path="url(#clip1_138_532)">
<path d="M67.5604 11.6648C67.5604 9.51744 69.3008 7.77618 71.4481 7.77618C73.5955 7.77618 75.3367 9.51744 75.3367 11.6648C75.3367 13.8122 73.5955 15.5534 71.4481 15.5534C69.3008 15.5534 67.5604 13.8122 67.5604 11.6648ZM65.4583 11.6648C65.4583 14.973 68.1399 17.6546 71.4481 17.6546C74.7563 17.6546 77.4379 14.973 77.4379 11.6648C77.4379 8.3566 74.7563 5.67498 71.4481 5.67498C68.1399 5.67498 65.4583 8.3566 65.4583 11.6648ZM76.2752 5.43754C76.2752 6.21018 76.9018 6.83771 77.6754 6.83771C78.448 6.83771 79.0755 6.21018 79.0755 5.43754C79.0755 4.6649 78.449 4.03831 77.6754 4.03831C76.9018 4.03831 76.2752 4.6649 76.2752 5.43754ZM66.735 21.1597C65.5978 21.1079 64.9797 20.9185 64.5688 20.7583C64.0242 20.5463 63.636 20.2938 63.2271 19.8858C62.8191 19.4778 62.5656 19.0896 62.3546 18.545C62.1944 18.1342 62.005 17.5161 61.9532 16.3788C61.8966 15.1492 61.8853 14.7798 61.8853 11.6648C61.8853 8.54976 61.8976 8.18134 61.9532 6.95078C62.005 5.81349 62.1953 5.19633 62.3546 4.78457C62.5666 4.23995 62.8191 3.85175 63.2271 3.44282C63.6351 3.03483 64.0233 2.78137 64.5688 2.57031C64.9797 2.41013 65.5978 2.22074 66.735 2.16891C67.9647 2.11238 68.334 2.10107 71.4481 2.10107C74.5632 2.10107 74.9316 2.11332 76.1621 2.16891C77.2994 2.22074 77.9166 2.41107 78.3284 2.57031C78.873 2.78137 79.2612 3.03483 79.6701 3.44282C80.0781 3.85081 80.3306 4.23995 80.5426 4.78457C80.7028 5.19538 80.8922 5.81349 80.944 6.95078C81.0005 8.18134 81.0119 8.54976 81.0119 11.6648C81.0119 14.7789 81.0005 15.1483 80.944 16.3788C80.8922 17.5161 80.7019 18.1342 80.5426 18.545C80.3306 19.0896 80.0781 19.4778 79.6701 19.8858C79.2621 20.2938 78.873 20.5463 78.3284 20.7583C77.9175 20.9185 77.2994 21.1079 76.1621 21.1597C74.9325 21.2163 74.5632 21.2276 71.4481 21.2276C68.334 21.2276 67.9647 21.2163 66.735 21.1597ZM66.6389 0.0705459C65.3971 0.12708 64.549 0.324008 63.8075 0.612333C63.0405 0.910081 62.3904 1.30959 61.7412 1.95785C61.0929 2.60611 60.6934 3.25626 60.3957 4.02418C60.1073 4.76572 59.9104 5.61374 59.8539 6.85561C59.7964 8.09937 59.7832 8.49699 59.7832 11.6648C59.7832 14.8326 59.7964 15.2302 59.8539 16.474C59.9104 17.7159 60.1073 18.5639 60.3957 19.3054C60.6934 20.0724 61.092 20.7235 61.7412 21.3717C62.3894 22.02 63.0396 22.4186 63.8075 22.7173C64.55 23.0056 65.3971 23.2025 66.6389 23.2591C67.8836 23.3156 68.2803 23.3297 71.4481 23.3297C74.6169 23.3297 75.0136 23.3165 76.2573 23.2591C77.4992 23.2025 78.3472 23.0056 79.0887 22.7173C79.8557 22.4186 80.5059 22.02 81.1551 21.3717C81.8033 20.7235 82.2019 20.0724 82.5006 19.3054C82.7889 18.5639 82.9868 17.7159 83.0424 16.474C83.0989 15.2293 83.1121 14.8326 83.1121 11.6648C83.1121 8.49699 83.0989 8.09937 83.0424 6.85561C82.9858 5.61374 82.7889 4.76572 82.5006 4.02418C82.2019 3.2572 81.8033 2.60705 81.1551 1.95785C80.5068 1.30959 79.8557 0.910081 79.0897 0.612333C78.3472 0.324008 77.4992 0.126138 76.2583 0.0705459C75.0145 0.0140115 74.6169 -0.00012207 71.4491 -0.00012207C68.2803 -0.00012207 67.8836 0.0130693 66.6389 0.0705459Z" fill="white"/>
</g>
<path d="M127.646 22.106C137.339 22.106 142.64 14.0728 142.64 7.1067C142.64 6.87856 142.635 6.65146 142.625 6.42531C143.656 5.67873 144.546 4.75434 145.253 3.69548C144.309 4.11542 143.293 4.39806 142.227 4.5255C143.315 3.87287 144.15 2.8404 144.545 1.60971C143.51 2.22359 142.378 2.65635 141.198 2.88932C140.237 1.86463 138.868 1.22375 137.352 1.22375C134.442 1.22375 132.082 3.58459 132.082 6.49469C132.082 6.90842 132.128 7.31071 132.218 7.69672C127.839 7.47626 123.955 5.37853 121.356 2.18883C120.888 2.99333 120.641 3.90767 120.642 4.83847C120.642 6.66744 121.573 8.282 122.987 9.22661C122.15 9.20104 121.332 8.97492 120.601 8.56725C120.6 8.58939 120.6 8.61095 120.6 8.6346C120.6 11.1876 122.416 13.3192 124.828 13.8022C124.375 13.9256 123.907 13.988 123.438 13.9877C123.099 13.9877 122.769 13.9543 122.448 13.8927C123.119 15.9873 125.064 17.5115 127.37 17.5541C125.567 18.9683 123.295 19.8107 120.825 19.8107C120.405 19.811 119.986 19.7866 119.568 19.7376C121.901 21.2331 124.67 22.1056 127.646 22.1056" fill="white"/>
<g clip-path="url(#clip2_138_532)">
<path d="M181.707 2.93402C181.707 2.16813 181.975 1.53628 182.511 1.03848C183.047 0.540651 183.744 0.291748 184.602 0.291748C185.445 0.291748 186.126 0.536813 186.647 1.02699C187.183 1.53247 187.451 2.19111 187.451 3.00295C187.451 3.7382 187.191 4.35088 186.67 4.84106C186.134 5.34654 185.429 5.59928 184.556 5.59928H184.533C183.691 5.59928 183.009 5.34654 182.488 4.84106C181.967 4.33558 181.707 3.69989 181.707 2.93402ZM182.006 23.0383V7.69012H187.106V23.0383H182.006ZM189.933 23.0383H195.033V14.4681C195.033 13.932 195.095 13.5184 195.217 13.2274C195.432 12.7066 195.757 12.2662 196.194 11.9063C196.63 11.5463 197.178 11.3663 197.836 11.3663C199.552 11.3663 200.41 12.5228 200.41 14.8358V23.0383H205.51V14.2384C205.51 11.9714 204.974 10.252 203.902 9.08019C202.83 7.9084 201.413 7.3225 199.652 7.3225C197.676 7.3225 196.136 8.17263 195.033 9.87287V9.91883H195.01L195.033 9.87287V7.69012H189.933C189.963 8.18028 189.979 9.70436 189.979 12.2624C189.979 14.8204 189.963 18.4124 189.933 23.0383Z" fill="white"/>
</g>
<path fill-rule="evenodd" clip-rule="evenodd" d="M252.033 11.6649H249V22.8936H243.932V11.6649H241.965V7.88073H243.932V5.47031C243.932 2.3133 245.246 0.436157 248.966 0.436157H252.737V4.20324H250.544C249.094 4.20324 249 4.74505 249 5.75188L248.996 7.87646H252.443L252.029 11.6606L252.033 11.6649Z" fill="white"/>
<g clip-path="url(#clip3_138_532)">
<path d="M302.63 10.5489C302.63 10.5489 305.78 10.315 305.78 6.62086C305.78 2.92647 303.203 1.12354 299.938 1.12354H289.195V21.7683H299.938C299.938 21.7683 306.496 21.9755 306.496 15.6749C306.496 15.675 306.782 10.5489 302.63 10.5489ZM299.165 4.79291H299.938C299.938 4.79291 301.398 4.79291 301.398 6.94091C301.398 9.08865 300.54 9.40004 299.566 9.40004H293.929V4.79291H299.165ZM299.635 18.0991H293.929V12.582H299.938C299.938 12.582 302.115 12.5535 302.115 15.4172C302.115 17.832 300.489 18.0808 299.635 18.0991ZM315.243 6.37618C307.303 6.37618 307.31 14.3085 307.31 14.3085C307.31 14.3085 306.766 22.2002 315.243 22.2002C315.243 22.2002 322.307 22.6037 322.307 16.7104H318.674C318.674 16.7104 318.795 18.9297 315.364 18.9297C315.364 18.9297 311.73 19.1732 311.73 15.338H322.428C322.428 15.3379 323.598 6.37618 315.243 6.37618ZM311.69 12.582C311.69 12.582 312.134 9.39998 315.323 9.39998C318.512 9.39998 318.472 12.582 318.472 12.582H311.69ZM319.319 4.88203H310.801V2.33978H319.319V4.88203Z" fill="white"/>
</g>
<defs>
<clipPath id="clip0_138_532">
<rect width="23.3298" height="23.3298" fill="white"/>
</clipPath>
<clipPath id="clip1_138_532">
<rect width="23.3298" height="23.3298" fill="white" transform="translate(59.7832)"/>
</clipPath>
<clipPath id="clip2_138_532">
<rect width="23.8035" height="22.7466" fill="white" transform="translate(181.707 0.291748)"/>
</clipPath>
<clipPath id="clip3_138_532">
<rect width="33.2949" height="21.0824" fill="white" transform="translate(289.191 1.12366)"/>
</clipPath>
</defs>
</svg>
