<svg width="28" height="28" viewBox="0 0 28 28" fill="none" xmlns="http://www.w3.org/2000/svg">
<path fill-rule="evenodd" clip-rule="evenodd" d="M23.3346 7.00008L4.66797 7.00008C4.02364 7.00008 3.5013 7.52242 3.5013 8.16675L3.5013 11.0834H24.5013L24.5013 8.16675C24.5013 7.52242 23.979 7.00008 23.3346 7.00008ZM24.5013 13.4167H3.5013V19.8334C3.5013 20.4777 4.02364 21.0001 4.66797 21.0001L23.3346 21.0001C23.979 21.0001 24.5013 20.4777 24.5013 19.8334V13.4167ZM4.66797 4.66675L23.3346 4.66675C25.2676 4.66675 26.8346 6.23375 26.8346 8.16675L26.8346 19.8334C26.8346 21.7664 25.2676 23.3334 23.3346 23.3334L4.66797 23.3334C2.73497 23.3334 1.16797 21.7664 1.16797 19.8334L1.16797 8.16675C1.16797 6.23375 2.73497 4.66675 4.66797 4.66675Z" fill="#8ECAE6"/>
</svg>
