<svg width="24" height="24" viewBox="0 0 24 24" fill="none" xmlns="http://www.w3.org/2000/svg">
<g clip-path="url(#clip0_94_13)">
<path d="M12 2C14.757 2 17 4.243 17 7.001C17 9.757 14.757 12.001 12 12.001C9.243 12.001 7 9.757 7 7.001C7 4.243 9.243 2 12 2V2ZM12 0C8.134 0 5 3.134 5 7.001C5 10.866 8.134 14.001 12 14.001C15.866 14.001 19 10.866 19 7.001C19 3.134 15.866 0 12 0V0ZM18.369 13.353C17.872 13.851 17.312 14.284 16.711 14.655C19.583 16.529 21.089 19.738 21.683 22.001H2.296C2.868 19.711 4.354 16.498 7.269 14.643C6.666 14.269 6.107 13.832 5.611 13.331C1.353 16.403 0 21.837 0 24H24C24 21.858 22.56 16.443 18.369 13.353Z" fill="#1040E2"/>
</g>
<defs>
<clipPath id="clip0_94_13">
<rect width="24" height="24" fill="white"/>
</clipPath>
</defs>
</svg>
